<svg width="35" height="30" viewBox="0 0 35 30" fill="none" xmlns="http://www.w3.org/2000/svg">
<path fill-rule="evenodd" clip-rule="evenodd" d="M20.5833 0.75C28.4534 0.75 34.8333 7.12994 34.8333 15C34.8333 22.8701 28.4534 29.25 20.5833 29.25C16.7185 29.25 13.213 27.7114 10.646 25.2133L12.8543 22.9437C14.8509 24.8867 17.5774 26.0833 20.5833 26.0833C26.7045 26.0833 31.6667 21.1212 31.6667 15C31.6667 8.87884 26.7045 3.91667 20.5833 3.91667C14.4622 3.91667 9.5 8.87884 9.5 15C9.5 15.3 9.51192 15.5972 9.53531 15.8912L12.6667 12.7608L14.9058 15L7.91666 21.9892L0.92749 15L3.16666 12.7608L6.36506 15.9586C6.34402 15.6418 6.33333 15.3221 6.33333 15C6.33333 7.12994 12.7133 0.75 20.5833 0.75ZM18.1332 10.1852L20.5983 16.7577L23.0634 10.1852H26.4455L22.2893 21.2685H18.9073L14.7511 10.1852H18.1332Z" fill="#7C98FF"/>
</svg>
