<svg width="17" height="17" viewBox="0 0 17 17" fill="none" xmlns="http://www.w3.org/2000/svg">
<path fill-rule="evenodd" clip-rule="evenodd" d="M7.34507 2C4.39307 2 2 4.39307 2 7.34507C2 10.2971 4.39307 12.6902 7.34507 12.6902C10.2971 12.6902 12.6902 10.2971 12.6902 7.34507C12.6902 4.39307 10.2971 2 7.34507 2ZM0.5 7.34507C0.5 3.56463 3.56463 0.5 7.34507 0.5C11.1255 0.5 14.1902 3.56463 14.1902 7.34507C14.1902 8.96509 13.6274 10.4537 12.6866 11.6259L16.7804 15.7196L15.7196 16.7804L11.6259 12.6866C10.4537 13.6274 8.96509 14.1902 7.34507 14.1902C3.56463 14.1902 0.5 11.1255 0.5 7.34507Z" fill="white"/>
</svg>
