<svg width="16" height="16" viewBox="0 0 16 16" fill="none" xmlns="http://www.w3.org/2000/svg">
<path fill-rule="evenodd" clip-rule="evenodd" d="M7.33325 1.33325C6.22868 1.33325 5.33325 2.22869 5.33325 3.33325V4.00017C4.92981 4.00138 4.57401 4.00816 4.27499 4.04593C3.88225 4.09555 3.50471 4.20677 3.17927 4.48901C2.85383 4.77127 2.69033 5.12929 2.58569 5.51107C2.48849 5.86562 2.42499 6.31032 2.35189 6.82225L2.34623 6.86185L1.76807 10.909C1.67263 11.5768 1.59117 12.1469 1.59034 12.6057C1.58946 13.0941 1.6772 13.5744 2.02638 13.977C2.37557 14.3796 2.83867 14.5344 3.32228 14.6026C3.77656 14.6667 4.35243 14.6667 5.02701 14.6666H10.9729C11.6475 14.6667 12.2233 14.6667 12.6776 14.6026C13.1612 14.5344 13.6243 14.3796 13.9735 13.977C14.3227 13.5744 14.4105 13.0941 14.4095 12.6057C14.4087 12.1469 14.3273 11.5768 14.2318 10.9089L13.648 6.82225C13.5749 6.31032 13.5114 5.86562 13.4142 5.51107C13.3096 5.12929 13.1461 4.77127 12.8207 4.48901C12.4952 4.20677 12.1177 4.09555 11.7249 4.04593C11.4259 4.00816 11.0701 4.00138 10.6666 4.00017V3.33325C10.6666 2.22869 9.77118 1.33325 8.66658 1.33325H7.33325ZM9.33325 3.99992V3.33325C9.33325 2.96507 9.03478 2.66659 8.66658 2.66659H7.33325C6.96505 2.66659 6.66658 2.96507 6.66658 3.33325V3.99992H9.33325ZM5.99992 5.33325C6.3681 5.33325 6.66658 5.63173 6.66658 5.99992V7.33325C6.66658 7.70145 6.3681 7.99992 5.99992 7.99992C5.63173 7.99992 5.33325 7.70145 5.33325 7.33325V5.99992C5.33325 5.63173 5.63173 5.33325 5.99992 5.33325ZM10.6666 5.99992C10.6666 5.63173 10.3681 5.33325 9.99992 5.33325C9.63172 5.33325 9.33325 5.63173 9.33325 5.99992V7.33325C9.33325 7.70145 9.63172 7.99992 9.99992 7.99992C10.3681 7.99992 10.6666 7.70145 10.6666 7.33325V5.99992Z" fill="white"/>
</svg>
