<svg width="16" height="16" viewBox="0 0 16 16" fill="none" xmlns="http://www.w3.org/2000/svg">
<path d="M14.3157 3.36841H13.8946C13.8946 4.53106 12.9521 5.47366 11.7894 5.47366C10.6267 5.47366 9.68413 4.5311 9.68417 3.36841H9.52854C9.35573 3.36841 9.18717 3.42153 9.04563 3.52063L7.73632 4.43719L8.96395 6.25741L7.91667 6.96363L6.70135 5.1616L5.74245 5.83285C5.46876 6.02444 5.16307 6.16153 4.84204 6.23966V9.68422H11.6009C11.8114 7.67303 13.512 6.10528 15.5789 6.10528V4.63156C15.5789 3.93397 15.0134 3.36841 14.3157 3.36841Z" fill="white"/>
<path d="M12.8745 9.68419H15.5789V7.36841C14.2129 7.36838 13.0776 8.37428 12.8745 9.68419Z" fill="white"/>
<path d="M0.445068 9.68425H3.57891V6.36841C1.92151 6.64594 0.631256 7.99741 0.445068 9.68425Z" fill="white"/>
<path d="M16 10.9473H0V12.6315H16V10.9473Z" fill="white"/>
</svg>
