<svg width="16" height="16" viewBox="0 0 16 16" fill="none" xmlns="http://www.w3.org/2000/svg">
<path fill-rule="evenodd" clip-rule="evenodd" d="M9.33852 12.6687L9.34238 11.3334C9.34238 10.9652 9.64159 10.6667 10.0107 10.6667C10.3798 10.6667 10.6791 10.9652 10.6791 11.3334V12.6511C10.6791 12.9721 10.6791 13.1326 10.782 13.231C10.8849 13.3295 11.0424 13.3227 11.3574 13.3094C12.5993 13.2569 13.3624 13.0889 13.9002 12.5523C14.4393 12.0146 14.6073 11.2511 14.6595 10.0071C14.6699 9.76041 14.6751 9.63701 14.6291 9.55475C14.583 9.47241 14.3991 9.36975 14.0312 9.16428C13.6227 8.93615 13.3465 8.50028 13.3465 8.00008C13.3465 7.49988 13.6227 7.06401 14.0312 6.83588C14.3991 6.63044 14.583 6.52773 14.6291 6.44543C14.6751 6.36313 14.6699 6.23977 14.6595 5.99306C14.6073 4.74901 14.4393 3.98557 13.9002 3.44779C13.3151 2.86411 12.4634 2.71661 11.0185 2.67935C10.8321 2.67454 10.6791 2.82487 10.6791 3.01087V4.66675C10.6791 5.03493 10.3798 5.33341 10.0107 5.33341C9.64159 5.33341 9.34238 5.03493 9.34238 4.66675L9.33752 2.99911C9.33698 2.8154 9.18752 2.66675 9.00339 2.66675H6.66326C4.14284 2.66675 2.88263 2.66675 2.09964 3.44779C1.56052 3.98557 1.3926 4.74901 1.3403 5.99306C1.32993 6.23977 1.32474 6.36313 1.37081 6.44543C1.41688 6.52773 1.6008 6.63044 1.96864 6.83588C2.37716 7.06401 2.6533 7.49988 2.6533 8.00008C2.6533 8.50028 2.37716 8.93615 1.96864 9.16428C1.6008 9.36975 1.41688 9.47241 1.37081 9.55475C1.32474 9.63701 1.32993 9.76041 1.3403 10.0071C1.3926 11.2511 1.56052 12.0146 2.09964 12.5523C2.88263 13.3334 4.14284 13.3334 6.66326 13.3334H8.67018C8.98438 13.3334 9.14152 13.3334 9.23932 13.2361C9.33712 13.1388 9.33759 12.9821 9.33852 12.6687ZM10.6791 8.66675V7.33341C10.6791 6.96521 10.3798 6.66675 10.0107 6.66675C9.64159 6.66675 9.34238 6.96521 9.34238 7.33341V8.66675C9.34238 9.03495 9.64159 9.33341 10.0107 9.33341C10.3798 9.33341 10.6791 9.03495 10.6791 8.66675Z" fill="white" fill-opacity="0.33"/>
</svg>
