<svg width="16" height="16" viewBox="0 0 16 16" fill="none" xmlns="http://www.w3.org/2000/svg">
<path fill-rule="evenodd" clip-rule="evenodd" d="M9.33827 12.6687L9.34214 11.3334C9.34214 10.9652 9.64134 10.6667 10.0105 10.6667C10.3795 10.6667 10.6788 10.9652 10.6788 11.3334V12.6511C10.6788 12.9721 10.6788 13.1326 10.7817 13.231C10.8847 13.3295 11.0421 13.3227 11.3571 13.3094C12.5991 13.2569 13.3621 13.0889 13.8999 12.5523C14.4391 12.0146 14.607 11.2511 14.6593 10.0071C14.6697 9.76041 14.6749 9.63701 14.6288 9.55475C14.5827 9.47241 14.3988 9.36975 14.0309 9.16428C13.6224 8.93615 13.3463 8.50028 13.3463 8.00008C13.3463 7.49988 13.6224 7.06401 14.0309 6.83588C14.3988 6.63044 14.5827 6.52773 14.6288 6.44543C14.6749 6.36313 14.6697 6.23977 14.6593 5.99306C14.607 4.74901 14.4391 3.98557 13.8999 3.44779C13.3148 2.86411 12.4631 2.71661 11.0182 2.67935C10.8318 2.67454 10.6788 2.82487 10.6788 3.01087V4.66675C10.6788 5.03493 10.3795 5.33341 10.0105 5.33341C9.64134 5.33341 9.34214 5.03493 9.34214 4.66675L9.33727 2.99911C9.33674 2.8154 9.18727 2.66675 9.00314 2.66675H6.66302C4.1426 2.66675 2.88239 2.66675 2.09939 3.44779C1.56028 3.98557 1.39236 4.74901 1.34006 5.99306C1.32969 6.23977 1.3245 6.36313 1.37057 6.44543C1.41664 6.52773 1.60056 6.63044 1.96839 6.83588C2.37691 7.06401 2.65305 7.49988 2.65305 8.00008C2.65305 8.50028 2.37691 8.93615 1.96839 9.16428C1.60056 9.36975 1.41664 9.47241 1.37057 9.55475C1.3245 9.63701 1.32969 9.76041 1.34006 10.0071C1.39236 11.2511 1.56028 12.0146 2.09939 12.5523C2.88239 13.3334 4.14259 13.3334 6.66302 13.3334H8.66994C8.98414 13.3334 9.14127 13.3334 9.23907 13.2361C9.33687 13.1388 9.33734 12.9821 9.33827 12.6687ZM10.6788 8.66675V7.33341C10.6788 6.96521 10.3795 6.66675 10.0105 6.66675C9.64134 6.66675 9.34214 6.96521 9.34214 7.33341V8.66675C9.34214 9.03495 9.64134 9.33341 10.0105 9.33341C10.3795 9.33341 10.6788 9.03495 10.6788 8.66675Z" fill="white"/>
</svg>
